<svg xmlns="http://www.w3.org/2000/svg" width="64" height="64" viewBox="0 0 64 64"><rect width="64" height="64" fill="hsl(65 42% 76%)"/><rect x="17" y="16" width="30" height="34" rx="13" fill="#d6a64b"/><path d="M10 64 C10 50 20 45 32 45 C44 45 54 50 54 64 Z" fill="hsl(257 38% 42%)"/><rect x="28" y="38" width="8" height="9" rx="3" fill="#eab993"/><circle cx="32" cy="29" r="12.5" fill="#eab993"/><path d="M19.5 28 C19 17 25 14.5 32 14.5 C39 14.5 45 17 44.5 28 C41 22 36 20.5 32 20.5 C27 20.5 23 22 19.5 28 Z" fill="#d6a64b"/><circle cx="27.5" cy="29.5" r="1.5" fill="#2a2420"/><circle cx="36.5" cy="29.5" r="1.5" fill="#2a2420"/><path d="M28.5 35 Q32 38 35.5 35" stroke="#2a2420" stroke-width="1.4" fill="none" stroke-linecap="round"/><path d="M18.5 30 C18.5 12 45.5 12 45.5 30" stroke="hsl(265 30% 28%)" stroke-width="2.6" fill="none"/><rect x="15.5" y="26" width="6" height="10" rx="2.5" fill="hsl(265 30% 28%)"/><rect x="42.5" y="26" width="6" height="10" rx="2.5" fill="hsl(265 30% 28%)"/></svg>
