<svg xmlns="http://www.w3.org/2000/svg" width="64" height="64" viewBox="0 0 64 64"><rect width="64" height="64" fill="hsl(238 42% 76%)"/><rect x="17" y="16" width="30" height="34" rx="13" fill="#8a8a8a"/><path d="M10 64 C10 50 20 45 32 45 C44 45 54 50 54 64 Z" fill="hsl(33 38% 42%)"/><rect x="28" y="38" width="8" height="9" rx="3" fill="#7a4f33"/><circle cx="32" cy="29" r="12.5" fill="#7a4f33"/><path d="M19.5 28 C19 17 25 14.5 32 14.5 C39 14.5 45 17 44.5 28 C41 22 36 20.5 32 20.5 C27 20.5 23 22 19.5 28 Z" fill="#8a8a8a"/><path d="M25.5 30 Q27.5 28 29.5 30 M34.5 30 Q36.5 28 38.5 30" stroke="#2a2420" stroke-width="1.4" fill="none" stroke-linecap="round"/><ellipse cx="32" cy="35.6" rx="1.8" ry="1.4" fill="#2a2420"/></svg>
